# xmcd CD database file
# Copyright (C) 1993-1998 Ti Kan
#
# Track frame offsets:
#	150
#	16005
#	31525
#	47480
#	64470
#	80198
#	99228
#	114893
#	131450
#	146913
#	162760
#	177425
#	194680
#	209975
#	225845
#	240078
#	253763
#	266453
#	283003
#	303460
#
# Disc length: 4273 seconds
#
# Revision: 2
# Processed by: cddbd v1.4b41PL1 Copyright (c) Steve Scherf et al.
# Submitted via: CDValet v3.31 - Copyright (c) 1997 Greg Leichner
#
DISCID=1110af14
DTITLE=Wolfgang Petry - Alles
DYEAR=1900
DGENRE=
TTITLE0=Verlieben, verloren, vergessen, verzeih'n
TTITLE1=Der Himmel brennt
TTITLE2=Du bist ein Wunder
TTITLE3=Wahnsinn
TTITLE4=Wieso und weshalb ...
TTITLE5=Sommer in der Stadt
TTITLE6=Sieben Tage, sieben Nächte
TTITLE7=Ganz oder gar nicht
TTITLE8=Frei für Dich
TTITLE9=Jessica
TTITLE10=Bronze, Silber und Gold
TTITLE11=Tu's doch
TTITLE12=Gianna
TTITLE13=Sehnsucht nach Dir
TTITLE14=Scheissegal
TTITLE15=Ruhrgebiet
TTITLE16=Denn eines Tages vielleicht
TTITLE17=Nur ein kleines Stück Papier
TTITLE18=Mein Zuhaus
TTITLE19=Der Wolfgang Petry-Hitmix
EXTD=
EXTT0=
EXTT1=
EXTT2=
EXTT3=
EXTT4=
EXTT5=
EXTT6=
EXTT7=
EXTT8=
EXTT9=
EXTT10=
EXTT11=
EXTT12=
EXTT13=
EXTT14=
EXTT15=
EXTT16=
EXTT17=
EXTT18=
EXTT19=
PLAYORDER=
